<svg xmlns="http://www.w3.org/2000/svg" width="29" height="28" fill="none">
<symbol id="floppy" viewBox="0 0 29 28">
  <path fill="currentColor" d="M.5 0h2.15385v2.15385H.5z"/>
  <path fill="currentColor" d="M.5 2.15381h2.15385v2.15385H.5z"/>
  <path fill="currentColor" d="M.5 4.30762h2.15385v2.15385H.5z"/>
  <path fill="currentColor" d="M.5 6.46143h2.15385v2.15385H.5z"/>
  <path fill="currentColor" d="M.5 8.61523h2.15385v2.15385H.5z"/>
  <path fill="currentColor" d="M.5 10.769h2.15385v2.15385H.5zM.5 12.9233h2.15385v2.15385H.5z"/>
  <path fill="currentColor" d="M.5 15.0767h2.15385v2.15385H.5zM.5 17.231h2.15385v2.15385H.5z"/>
  <path fill="currentColor" d="M.5 19.3848h2.15385v2.15385H.5z"/>
  <path fill="currentColor" d="M.5 21.5386h2.15385v2.15385H.5z"/>
  <path fill="currentColor" d="M.5 23.6924h2.15385v2.15385H.5z"/>
  <path fill="currentColor" d="M.5 25.8462h2.15385v2.15385H.5zM24.1927 0v2.15385h-2.15385V0z"/>
  <path fill="currentColor" d="M22.0391 0v2.15385h-2.15385V0zM19.8841 0v2.15385h-2.15385V0z"/>
  <path fill="currentColor" d="M17.7305 0v2.15385h-2.15385V0z"/>
  <path fill="currentColor" d="M15.5768 0v2.15385h-2.15385V0z"/>
  <path fill="currentColor" d="M13.4232 0v2.15385h-2.15385V0z"/>
  <path fill="currentColor" d="M11.2695 0v2.15385H9.11565V0z"/>
  <path fill="currentColor" d="M9.11589 0v2.15385H6.96204V0zM6.96094 0v2.15385H4.80709V0z"/>
  <path fill="currentColor" d="M4.8073 0v2.15385H2.65345V0zM26.3464 2.15381v2.15385h-2.15385V2.15381zM6.96094 4.30762v2.15385H4.80709V4.30762z"/>
  <path fill="currentColor" d="M6.96094 2.15381v2.15385H4.80709V2.15381zM6.96094 6.46143v2.15385H4.80709V6.46143zM22.0391 4.30762v2.15385h-2.15385V4.30762z"/>
  <path fill="currentColor" d="M22.0391 2.15381v2.15385h-2.15385V2.15381zM22.0391 6.46143v2.15385h-2.15385V6.46143zM17.7305 4.30762v2.15385h-2.15385V4.30762z"/>
  <path fill="currentColor" d="M17.7305 2.15381v2.15385h-2.15385V2.15381zM17.7305 6.46143v2.15385h-2.15385V6.46143zM22.0391 8.61523v2.15385h-2.15385V8.61523z"/>
  <path fill="currentColor" d="M19.8841 8.61523v2.15385h-2.15385V8.61523z"/>
  <path fill="currentColor" d="M17.7305 8.61523v2.15385h-2.15385V8.61523z"/>
  <path fill="currentColor" d="M15.5768 8.61523v2.15385h-2.15385V8.61523z"/>
  <path fill="currentColor" d="M13.4232 8.61523v2.15385h-2.15385V8.61523z"/>
  <path fill="currentColor" d="M11.2695 8.61523v2.15385H9.11565V8.61523z"/>
  <path fill="currentColor" d="M9.11589 8.61523v2.15385H6.96204V8.61523zM6.96094 8.61523v2.15385H4.80709V8.61523zM24.1927 15.0767v2.15385h-2.15385V15.0767z"/>
  <path fill="currentColor" d="M22.0391 15.0767v2.15385h-2.15385V15.0767zM19.8841 15.0767v2.15385h-2.15385V15.0767z"/>
  <path fill="currentColor" d="M17.7305 15.0767v2.15385h-2.15385V15.0767z"/>
  <path fill="currentColor" d="M15.5768 15.0767v2.15385h-2.15385V15.0767z"/>
  <path fill="currentColor" d="M13.4232 15.0767v2.15385h-2.15385V15.0767z"/>
  <path fill="currentColor" d="M11.2695 15.0767v2.15385H9.11565V15.0767z"/>
  <path fill="currentColor" d="M9.11589 15.0767v2.15385H6.96204V15.0767zM6.96094 15.0767v2.15385H4.80709V15.0767zM24.1927 17.231v2.15385h-2.15385V17.231zM6.96094 17.231v2.15385H4.80709V17.231z"/>
  <path fill="currentColor" d="M24.1927 19.3848v2.15385h-2.15385V19.3848zM6.96094 19.3848v2.15385H4.80709V19.3848z"/>
  <path fill="currentColor" d="M24.1927 21.5386v2.15385h-2.15385V21.5386zM6.96094 21.5386v2.15385H4.80709V21.5386z"/>
  <path fill="currentColor" d="M6.96094 23.6924v2.15385H4.80709V23.6924zM24.1927 23.6924v2.15385h-2.15385V23.6924z"/>
  <path fill="currentColor" d="M26.3464 25.8462v2.15385h-2.15385V25.8462z"/>
  <path fill="currentColor" d="M24.1927 25.8462v2.15385h-2.15385V25.8462z"/>
  <path fill="currentColor" d="M22.0391 25.8462v2.15385h-2.15385V25.8462zM19.8841 25.8462v2.15385h-2.15385V25.8462z"/>
  <path fill="currentColor" d="M17.7305 25.8462v2.15385h-2.15385V25.8462z"/>
  <path fill="currentColor" d="M15.5768 25.8462v2.15385h-2.15385V25.8462z"/>
  <path fill="currentColor" d="M13.4232 25.8462v2.15385h-2.15385V25.8462z"/>
  <path fill="currentColor" d="M11.2695 25.8462v2.15385H9.11565V25.8462z"/>
  <path fill="currentColor" d="M9.11589 25.8462v2.15385H6.96204V25.8462zM6.96094 25.8462v2.15385H4.80709V25.8462z"/>
  <path fill="currentColor" d="M4.8073 25.8462v2.15385H2.65345V25.8462zM28.5 28h-2.15385v-2.15385H28.5z"/>
  <path fill="currentColor" d="M28.5 25.8462h-2.15385v-2.15385H28.5z"/>
  <path fill="currentColor" d="M28.5 23.6924h-2.15385v-2.15385H28.5z"/>
  <path fill="currentColor" d="M28.5 21.5386h-2.15385v-2.15385H28.5z"/>
  <path fill="currentColor" d="M28.5 19.3848h-2.15385v-2.15385H28.5z"/>
  <path fill="currentColor" d="M28.5 17.231h-2.15385v-2.15385H28.5zM28.5 15.0767h-2.15385v-2.15385H28.5z"/>
  <path fill="currentColor" d="M28.5 12.9233h-2.15385v-2.15385H28.5zM28.5 10.769h-2.15385V8.61515H28.5z"/>
  <path fill="currentColor" d="M28.5 8.61523h-2.15385V6.46138H28.5z"/>
  <path fill="currentColor" d="M28.5 6.46143h-2.15385V4.30758H28.5z"/>
</symbol>
</svg>